<svg xmlns="http://www.w3.org/2000/svg" width="500" height="500" viewBox="0 0 500 500">
  <g fill="none" fill-rule="evenodd">
    <circle cx="250" cy="250" r="250" fill="#9D4165"/>
    <path fill="#FFFFFF" d="M347.105263,179.473684 C352.894737,179.473684 355.526316,176.315789 355.526316,171.052632 L355.526316,115.263158 C355.526316,67.3684211 330.789474,41.0526316 283.947368,39.4736842 L283.947368,8.42105263 C283.947368,3.15789474 280.789474,0 275.526316,0 L224.473684,0 C218.684211,0 216.052632,3.15789474 216.052632,8.42105263 L216.052632,39.4736842 C170.263158,41.0526316 145,67.3684211 145,115.263158 L145,239.473684 C145,249.473684 149.736842,255.789474 159.210526,258.947368 L283.947368,300 L283.947368,370 C283.947368,384.210526 276.578947,391.052632 262.894737,391.052632 L237.631579,391.052632 C224.473684,391.052632 216.578947,384.210526 216.578947,370 L216.578947,329.473684 C216.578947,323.684211 213.947368,321.052632 208.157895,321.052632 L153.421053,321.052632 C148.157895,321.052632 145,323.684211 145,329.473684 L145,384.736842 C145,432.631579 170.263158,458.947368 216.052632,460.526316 L216.052632,491.578947 C216.052632,496.842105 218.684211,500 224.473684,500 L275.526316,500 C280.789474,500 283.947368,496.842105 283.947368,491.578947 L283.947368,460.526316 C330.789474,458.947368 355.526316,432.631579 355.526316,384.736842 L355.526316,263.157895 C355.526316,253.157895 350.789474,247.368421 341.842105,243.684211 L216.578947,202.631579 L216.578947,130 C216.578947,116.315789 224.473684,108.947368 237.631579,108.947368 L262.894737,108.947368 C277.105263,108.947368 283.947368,116.315789 283.947368,130 L283.947368,171.052632 C283.947368,176.315789 287.105263,179.473684 292.368421,179.473684 L347.105263,179.473684 Z"/>
  </g>
</svg>
